<?xml version="1.0" encoding="UTF-8"?>
<svg version="1.1" xmlns="http://www.w3.org/2000/svg" width="198" height="54">
<path d="M0 0 C3.96 0 7.92 0 12 0 C12.33 2.31 12.66 4.62 13 7 C13.66 7 14.32 7 15 7 C15.45375 6.030625 15.9075 5.06125 16.375 4.0625 C18 1 18 1 20 0 C23.3 0 26.6 0 30 0 C30 9.24 30 18.48 30 28 C27.69 28 25.38 28 23 28 C22.505 21.565 22.505 21.565 22 15 C22 18.96 22 22.92 22 27 C21.67 27 21.34 27 21 27 C20.505 24.525 20.505 24.525 20 22 C18.906875 22.185625 17.81375 22.37125 16.6875 22.5625 C13 23 13 23 10 22 C10 23.65 10 25.3 10 27 C7 28 7 28 0 28 C0 18.76 0 9.52 0 0 Z M18 3 C19 5 19 5 19 5 Z M14 10 C14 10.66 14 11.32 14 12 C14.66 12 15.32 12 16 12 C16 11.34 16 10.68 16 10 C15.34 10 14.68 10 14 10 Z M9 15 C10 17 10 17 10 17 Z M20 16 C21 18 21 18 21 18 Z M10 18 C11 20 11 20 11 20 Z M19 18 C20 20 20 20 20 20 Z " fill="#FFFFFF" transform="translate(159,20)"/>
<path d="M0 0 C2.495625 -0.061875 4.99125 -0.12375 7.5625 -0.1875 C8.33408447 -0.21481201 9.10566895 -0.24212402 9.90063477 -0.27026367 C14.995976 -0.33065194 18.44392195 0.71896749 23 3 C22.71640113 4.4391134 22.42278601 5.87625518 22.125 7.3125 C21.88136719 8.51326172 21.88136719 8.51326172 21.6328125 9.73828125 C21 12 21 12 19 15 C19.99 15.33 20.98 15.66 22 16 C22.99 17.98 23.98 19.96 25 22 C25.33 14.74 25.66 7.48 26 0 C26.33 0 26.66 0 27 0 C27 8.91 27 17.82 27 27 C23.47736212 28.76131894 19.60244663 28.08902481 15.75 27.875 C12.8774968 26.4387484 12.21132715 23.84661881 11 21 C10.87625 21.969375 10.7525 22.93875 10.625 23.9375 C10.41875 24.948125 10.2125 25.95875 10 27 C8 28 8 28 0 28 C0 18.76 0 9.52 0 0 Z M8 6 C12 7 12 7 12 7 Z M8 8 C9 10 9 10 9 10 Z M10 8 C10 8.66 10 9.32 10 10 C10.66 10 11.32 10 12 10 C12 9.34 12 8.68 12 8 C11.34 8 10.68 8 10 8 Z M8 11 C12 12 12 12 12 12 Z M8 18 C12 19 12 19 12 19 Z " fill="#FFFFFF" transform="translate(131,20)"/>
<path d="M0 0 C2.35125 -0.061875 4.7025 -0.12375 7.125 -0.1875 C7.85348145 -0.21481201 8.58196289 -0.24212402 9.33251953 -0.27026367 C14.00977145 -0.32925261 17.0021895 0.64520658 21 3 C21.66 3.33 22.32 3.66 23 4 C23.44041451 9.37305699 23.44041451 9.37305699 23 12 C20.5 14 20.5 14 18 15 C18.61875 15.2475 19.2375 15.495 19.875 15.75 C22 17 22 17 24 21 C24.33 14.4 24.66 7.8 25 1 C25.33 1 25.66 1 26 1 C26.02886537 5.31248609 26.04675255 9.62494762 26.0625 13.9375 C26.07087891 15.16919922 26.07925781 16.40089844 26.08789062 17.66992188 C26.09272461 19.4246582 26.09272461 19.4246582 26.09765625 21.21484375 C26.10551147 22.84087524 26.10551147 22.84087524 26.11352539 24.49975586 C26 27 26 27 25 28 C16.16486903 28.43451464 16.16486903 28.43451464 13 26 C11.75 23.875 11.75 23.875 11 22 C10.67 23.65 10.34 25.3 10 27 C7 28 7 28 0 28 C0 18.76 0 9.52 0 0 Z M21 5 C21 6.98 21 8.96 21 11 C21.33 11 21.66 11 22 11 C22 9.02 22 7.04 22 5 C21.67 5 21.34 5 21 5 Z M8 6 C12 7 12 7 12 7 Z M8 8 C9 10 9 10 9 10 Z M10 8 C11 10 11 10 11 10 Z M8 11 C12 12 12 12 12 12 Z M8 18 C12 19 12 19 12 19 Z M23 23 C24 25 24 25 24 25 Z " fill="#FFFFFF" transform="translate(9,20)"/>
<path d="M0 0 C3.36987038 0.70944639 5.16302414 1.20697037 7.63671875 3.55078125 C10.47883484 8.6568179 9.47570945 15.52731812 8.53320312 21.15917969 C7.72129027 23.96221216 6.47307632 25.08384248 4 26.5625 C-2.00398403 28.78655132 -7.38953544 29.08358906 -13.3125 26.625 C-14.199375 26.08875 -15.08625 25.5525 -16 25 C-17.1446875 24.566875 -17.1446875 24.566875 -18.3125 24.125 C-20 23 -20 23 -20.6171875 20.84765625 C-21.05500554 17.59082611 -21.01072685 14.59259342 -20.8125 11.3125 C-20.75707031 10.17425781 -20.70164062 9.03601563 -20.64453125 7.86328125 C-20 5 -20 5 -18.19921875 3.79296875 C-17.11060547 3.40044922 -17.11060547 3.40044922 -16 3 C-15.37867187 2.47019531 -14.75734375 1.94039062 -14.1171875 1.39453125 C-9.9777089 -1.33202569 -4.77217013 -0.3641415 0 0 Z M-9 6 C-9.4640625 6.9590625 -9.4640625 6.9590625 -9.9375 7.9375 C-11 10 -11 10 -12 11 C-12.01296763 13.07368302 -12.01296763 13.07368302 -11.75 15.4375 C-11.64945313 16.64212891 -11.64945313 16.64212891 -11.546875 17.87109375 C-11.1552993 20.37882111 -11.1552993 20.37882111 -8 22 C-4.85778033 21.68493373 -4.85778033 21.68493373 -2 21 C-2 20.01 -2 19.02 -2 18 C-1.98839844 17.12085938 -1.97679687 16.24171875 -1.96484375 15.3359375 C-1.95582031 14.35882813 -1.94679688 13.38171875 -1.9375 12.375 C-1.92589844 11.39273437 -1.91429687 10.41046875 -1.90234375 9.3984375 C-1.72669628 7.04738565 -1.72669628 7.04738565 -3 6 C-4.99958364 5.95919217 -7.00045254 5.95745644 -9 6 Z M-1 12 C-1 13.98 -1 15.96 -1 18 C-0.67 18 -0.34 18 0 18 C0 16.02 0 14.04 0 12 C-0.33 12 -0.66 12 -1 12 Z M-20 19 C-19 21 -19 21 -19 21 Z " fill="#FFFFFF" transform="translate(119,20)"/>
<path d="M0 0 C6.6 0 13.2 0 20 0 C20 6 20 6 19.5 7.875 C18.47031743 12.25115093 18.57884115 16.73652345 20 21 C20.03954234 23.33299825 20.04401732 25.66708189 20 28 C16.85418577 28.02888514 13.70840531 28.04675923 10.5625 28.0625 C9.66466797 28.07087891 8.76683594 28.07925781 7.84179688 28.08789062 C6.56079102 28.09272461 6.56079102 28.09272461 5.25390625 28.09765625 C4.46314697 28.10289307 3.6723877 28.10812988 2.85766602 28.11352539 C1 28 1 28 0 27 C-0.08758003 25.00035018 -0.10696576 22.9976389 -0.09765625 20.99609375 C-0.09443359 19.78115234 -0.09121094 18.56621094 -0.08789062 17.31445312 C-0.07951172 16.03505859 -0.07113281 14.75566406 -0.0625 13.4375 C-0.05798828 12.15423828 -0.05347656 10.87097656 -0.04882812 9.54882812 C-0.03699555 6.3658658 -0.01905944 3.18292726 0 0 Z " fill="#FFFFFF" transform="translate(36,20)"/>
<path d="M0 0 C6.27 0 12.54 0 19 0 C19.020625 2.59875 19.04125 5.1975 19.0625 7.875 C19.071604 8.69210449 19.08070801 9.50920898 19.09008789 10.35107422 C19.11111111 15.77777778 19.11111111 15.77777778 18 18 C15.36 18 12.72 18 10 18 C10 20.97 10 23.94 10 27 C8 28 8 28 0 28 C0 18.76 0 9.52 0 0 Z " fill="#FFFFFF" transform="translate(76,20)"/>
<path d="M0 0 C3.96 0 7.92 0 12 0 C12 2.31 12 4.62 12 7 C8.04 7 4.08 7 0 7 C0 4.69 0 2.38 0 0 Z " fill="#FFFFFF" transform="translate(60,33)"/>
<path d="M0 0 C0.33 0 0.66 0 1 0 C1 8.91 1 17.82 1 27 C0.67 27 0.34 27 0 27 C-1.3564524 17.8439463 -1.18319529 9.16976353 0 0 Z " fill="#FFFFFF" transform="translate(129,20)"/>
<path d="M0 0 C0.33 0 0.66 0 1 0 C1 8.91 1 17.82 1 27 C0.67 27 0.34 27 0 27 C-0.98753178 17.85393643 -0.89191731 9.15244374 0 0 Z " fill="#FFFFFF" transform="translate(74,20)"/>
<path d="M0 0 C0.33 0 0.66 0 1 0 C1 8.91 1 17.82 1 27 C0.67 27 0.34 27 0 27 C0 18.09 0 9.18 0 0 Z " fill="#FFFFFF" transform="translate(190,20)"/>
<path d="M0 0 C0.33 0 0.66 0 1 0 C1 8.91 1 17.82 1 27 C0.67 27 0.34 27 0 27 C0 18.09 0 9.18 0 0 Z " fill="#FFFFFF" transform="translate(7,20)"/>
<path d="M0 0 C6.27 0 12.54 0 19 0 C19 0.33 19 0.66 19 1 C12.73 1 6.46 1 0 1 C0 0.67 0 0.34 0 0 Z " fill="#FFFFFF" transform="translate(76,18)"/>
<path d="M0 0 C6.27 0 12.54 0 19 0 C19 0.33 19 0.66 19 1 C12.73 1 6.46 1 0 1 C0 0.67 0 0.34 0 0 Z " fill="#FFFFFF" transform="translate(37,18)"/>
<path d="M0 0 C5.94 0 11.88 0 18 0 C18 0.33 18 0.66 18 1 C12.06 1 6.12 1 0 1 C0 0.67 0 0.34 0 0 Z " fill="#FFFFFF" transform="translate(37,49)"/>
<path d="M0 0 C5.28 0 10.56 0 16 0 C16 0.33 16 0.66 16 1 C10.72 1 5.44 1 0 1 C0 0.67 0 0.34 0 0 Z " fill="#FFFFFF" transform="translate(131,18)"/>
<path d="M0 0 C0.33 0 0.66 0 1 0 C1 2.97 1 5.94 1 9 C-1 7 -1 7 -1.1875 3.9375 C-1 1 -1 1 0 0 Z " fill="#FFFFFF" transform="translate(97,29)"/>
<path d="M0 0 C4.95 0 9.9 0 15 0 C15 0.33 15 0.66 15 1 C10.05 1 5.1 1 0 1 C0 0.67 0 0.34 0 0 Z " fill="#FFFFFF" transform="translate(9,18)"/>
<path d="M0 0 C3.96 0 7.92 0 12 0 C12 0.33 12 0.66 12 1 C8.04 1 4.08 1 0 1 C0 0.67 0 0.34 0 0 Z " fill="#FFFFFF" transform="translate(60,41)"/>
<path d="M0 0 C3.96 0 7.92 0 12 0 C12 0.33 12 0.66 12 1 C8.04 1 4.08 1 0 1 C0 0.67 0 0.34 0 0 Z " fill="#FFFFFF" transform="translate(107,18)"/>
<path d="M0 0 C3.63 0 7.26 0 11 0 C11 0.33 11 0.66 11 1 C7.37 1 3.74 1 0 1 C0 0.67 0 0.34 0 0 Z " fill="#FFFFFF" transform="translate(60,31)"/>
<path d="M0 0 C3.3 0 6.6 0 10 0 C10 0.33 10 0.66 10 1 C6.7 1 3.4 1 0 1 C0 0.67 0 0.34 0 0 Z " fill="#FFFFFF" transform="translate(159,18)"/>
<path d="M0 0 C2.97 0 5.94 0 9 0 C9 0.33 9 0.66 9 1 C6.03 1 3.06 1 0 1 C0 0.67 0 0.34 0 0 Z " fill="#FFFFFF" transform="translate(109,49)"/>
<path d="M0 0 C2.97 0 5.94 0 9 0 C9 0.33 9 0.66 9 1 C6.03 1 3.06 1 0 1 C0 0.67 0 0.34 0 0 Z " fill="#FFFFFF" transform="translate(180,18)"/>
<path d="M0 0 C2.31 0 4.62 0 7 0 C7 0.33 7 0.66 7 1 C4.69 1 2.38 1 0 1 C0 0.67 0 0.34 0 0 Z " fill="#FFFFFF" transform="translate(26,49)"/>
<path d="M0 0 C1.98 0 3.96 0 6 0 C6 0.33 6 0.66 6 1 C4.02 1 2.04 1 0 1 C0 0.67 0 0.34 0 0 Z " fill="#FFFFFF" transform="translate(160,49)"/>
<path d="M0 0 C1.98 0 3.96 0 6 0 C6 0.33 6 0.66 6 1 C4.02 1 2.04 1 0 1 C0 0.67 0 0.34 0 0 Z " fill="#FFFFFF" transform="translate(149,49)"/>
<path d="M0 0 C1.98 0 3.96 0 6 0 C6 0.33 6 0.66 6 1 C4.02 1 2.04 1 0 1 C0 0.67 0 0.34 0 0 Z " fill="#FFFFFF" transform="translate(132,49)"/>
<path d="M0 0 C1.98 0 3.96 0 6 0 C6 0.33 6 0.66 6 1 C4.02 1 2.04 1 0 1 C0 0.67 0 0.34 0 0 Z " fill="#FFFFFF" transform="translate(77,49)"/>
<path d="M0 0 C1.98 0 3.96 0 6 0 C6 0.33 6 0.66 6 1 C4.02 1 2.04 1 0 1 C0 0.67 0 0.34 0 0 Z " fill="#FFFFFF" transform="translate(10,49)"/>
<path d="M0 0 C0.33 0 0.66 0 1 0 C1 1.98 1 3.96 1 6 C0.67 6 0.34 6 0 6 C0 4.02 0 2.04 0 0 Z " fill="#FFFFFF" transform="translate(57,41)"/>
<path d="M0 0 C0.33 0 0.66 0 1 0 C1 1.98 1 3.96 1 6 C0.67 6 0.34 6 0 6 C0 4.02 0 2.04 0 0 Z " fill="#FFFFFF" transform="translate(108,31)"/>
<path d="M0 0 C0.33 0 0.66 0 1 0 C1 1.98 1 3.96 1 6 C0.67 6 0.34 6 0 6 C0 4.02 0 2.04 0 0 Z " fill="#FFFFFF" transform="translate(56,30)"/>
<path d="M0 0 C1.98 0 3.96 0 6 0 C6 0.33 6 0.66 6 1 C4.02 1 2.04 1 0 1 C0 0.67 0 0.34 0 0 Z " fill="#FFFFFF" transform="translate(110,27)"/>
<path d="M0 0 C0.33 0 0.66 0 1 0 C1 1.98 1 3.96 1 6 C0.67 6 0.34 6 0 6 C0 4.02 0 2.04 0 0 Z " fill="#FFFFFF" transform="translate(57,20)"/>
<path d="M0 0 C1.65 0 3.3 0 5 0 C5 0.33 5 0.66 5 1 C3.35 1 1.7 1 0 1 C0 0.67 0 0.34 0 0 Z " fill="#FFFFFF" transform="translate(183,49)"/>
<path d="M0 0 C0.33 0 0.66 0 1 0 C1 1.65 1 3.3 1 5 C0.67 5 0.34 5 0 5 C0 3.35 0 1.7 0 0 Z " fill="#FFFFFF" transform="translate(58,34)"/>
<path d="M0 0 C0.33 0 0.66 0 1 0 C1 1.65 1 3.3 1 5 C0.67 5 0.34 5 0 5 C0 3.35 0 1.7 0 0 Z " fill="#FFFFFF" transform="translate(97,21)"/>
<path d="M0 0 C4 1 4 1 4 1 Z " fill="#FFFFFF" transform="translate(172,44)"/>
<path d="M0 0 C4 1 4 1 4 1 Z " fill="#FFFFFF" transform="translate(111,40)"/>
<path d="M0 0 C0.99 1.485 0.99 1.485 2 3 C1.34 3 0.68 3 0 3 C0 2.01 0 1.02 0 0 Z " fill="#FFFFFF" transform="translate(109,37)"/>
<path d="M0 0 C1 4 1 4 1 4 Z " fill="#FFFFFF" transform="translate(154,26)"/>
<path d="M0 0 C0.33 0.66 0.66 1.32 1 2 C0.34 1.67 -0.32 1.34 -1 1 C-0.67 0.67 -0.34 0.34 0 0 Z " fill="#FFFFFF" transform="translate(152,32)"/>
<path d="M0 0 C3 1 3 1 3 1 Z " fill="#FFFFFF" transform="translate(24,19)"/>
<path d="M0 0 C2 1 2 1 2 1 Z " fill="#FFFFFF" transform="translate(118,48)"/>
<path d="M0 0 C2 1 2 1 2 1 Z " fill="#FFFFFF" transform="translate(106,48)"/>
<path d="M0 0 C2 1 2 1 2 1 Z " fill="#FFFFFF" transform="translate(120,47)"/>
<path d="M0 0 C2 1 2 1 2 1 Z " fill="#FFFFFF" transform="translate(104,47)"/>
<path d="" fill="#FFFFFF" transform="translate(0,0)"/>
<path d="" fill="#FFFFFF" transform="translate(0,0)"/>
<path d="" fill="#FFFFFF" transform="translate(0,0)"/>
<path d="" fill="#FFFFFF" transform="translate(0,0)"/>
<path d="" fill="#FFFFFF" transform="translate(0,0)"/>
<path d="" fill="#FFFFFF" transform="translate(0,0)"/>
<path d="M0 0 C2 1 2 1 2 1 Z " fill="#FFFFFF" transform="translate(149,20)"/>
<path d="M0 0 C2 1 2 1 2 1 Z " fill="#FFFFFF" transform="translate(147,19)"/>
<path d="M0 0 C2 1 2 1 2 1 Z " fill="#FFFFFF" transform="translate(119,19)"/>
<path d="M0 0 C2 1 2 1 2 1 Z " fill="#FFFFFF" transform="translate(105,19)"/>
<path d="" fill="#FFFFFF" transform="translate(0,0)"/>
<path d="" fill="#FFFFFF" transform="translate(0,0)"/>
<path d="" fill="#FFFFFF" transform="translate(0,0)"/>
<path d="" fill="#FFFFFF" transform="translate(0,0)"/>
<path d="" fill="#FFFFFF" transform="translate(0,0)"/>
<path d="" fill="#FFFFFF" transform="translate(0,0)"/>
<path d="" fill="#FFFFFF" transform="translate(0,0)"/>
<path d="" fill="#FFFFFF" transform="translate(0,0)"/>
<path d="" fill="#FFFFFF" transform="translate(0,0)"/>
<path d="" fill="#FFFFFF" transform="translate(0,0)"/>
<path d="" fill="#FFFFFF" transform="translate(0,0)"/>
<path d="" fill="#FFFFFF" transform="translate(0,0)"/>
<path d="" fill="#FFFFFF" transform="translate(0,0)"/>
<path d="" fill="#FFFFFF" transform="translate(0,0)"/>
<path d="" fill="#FFFFFF" transform="translate(0,0)"/>
<path d="" fill="#FFFFFF" transform="translate(0,0)"/>
<path d="" fill="#FFFFFF" transform="translate(0,0)"/>
<path d="" fill="#FFFFFF" transform="translate(0,0)"/>
<path d="" fill="#FFFFFF" transform="translate(0,0)"/>
<path d="" fill="#FFFFFF" transform="translate(0,0)"/>
<path d="" fill="#FFFFFF" transform="translate(0,0)"/>
<path d="" fill="#FFFFFF" transform="translate(0,0)"/>
<path d="" fill="#FFFFFF" transform="translate(0,0)"/>
<path d="" fill="#FFFFFF" transform="translate(0,0)"/>
</svg>
