<?xml version="1.0" encoding="UTF-8"?>
<svg version="1.1" xmlns="http://www.w3.org/2000/svg" width="1097" height="166">
<path d="M0 0 C17.82 0 35.64 0 54 0 C65.71629733 27.31266716 77.42555214 54.6269709 89 82 C93.11662308 73.98309162 96.87417049 65.88255989 100.37109375 57.578125 C101.0992202 55.86263458 101.0992202 55.86263458 101.84205627 54.11248779 C103.3774805 50.49317551 104.90771886 46.87170057 106.4375 43.25 C107.96473997 39.64302639 109.49309012 36.03652657 111.02223206 32.43035889 C111.96752142 30.20016849 112.91159056 27.96946027 113.85411072 25.73809814 C117.49866181 17.12533293 121.25054169 8.57019043 125 0 C142.82 0 160.64 0 179 0 C179 52.8 179 105.6 179 160 C165.8 160 152.6 160 139 160 C138.67 123.37 138.34 86.74 138 49 C130.5513011 66.39337668 130.5513011 66.39337668 123.10400391 83.78735352 C118.17734119 95.29124932 113.24215698 106.79154245 108.2734375 118.27734375 C107.85357574 119.25240372 107.43371399 120.22746368 107.00112915 121.23207092 C106.61838837 122.11446945 106.23564758 122.99686798 105.84130859 123.90600586 C105.34127823 125.06246864 105.34127823 125.06246864 104.83114624 126.24229431 C104 128 104 128 103 129 C100.92737924 129.08767112 98.85179706 129.10695873 96.77734375 129.09765625 C95.51728516 129.09443359 94.25722656 129.09121094 92.95898438 129.08789062 C91.61848891 129.07953403 90.27799412 129.07106907 88.9375 129.0625 C87.59310058 129.0574866 86.2486994 129.05292342 84.90429688 129.04882812 C81.60282059 129.03699488 78.30143197 129.02050971 75 129 C72.19075007 122.40848364 69.3818848 115.8168035 66.57345104 109.22493935 C65.26797168 106.16079075 63.96234464 103.0967053 62.65649414 100.03271484 C61.13916755 96.47246619 59.62228481 92.91202868 58.10546875 89.3515625 C57.43598457 87.78107651 57.43598457 87.78107651 56.75297546 86.17886353 C51.47860945 73.79572015 46.24445851 61.39599285 41 49 C40.67 85.63 40.34 122.26 40 160 C26.8 160 13.6 160 0 160 C0 107.2 0 54.4 0 0 Z " fill="#000000" transform="translate(918,3)"/>
<path d="M0 0 C1.00923019 0.00555908 1.00923019 0.00555908 2.03884888 0.01123047 C23.26270981 0.17700509 42.58191616 4.81958053 58.6875 19.4375 C59.37070312 20.04078125 60.05390625 20.6440625 60.7578125 21.265625 C69.37767748 29.3283124 74.8703527 39.35461024 78.6875 50.4375 C79.08195313 51.56414063 79.47640625 52.69078125 79.8828125 53.8515625 C82.75214608 63.70360997 83.08551405 73.43263398 83.125 83.625 C83.1311734 84.3015564 83.1373468 84.97811279 83.14370728 85.6751709 C83.28152278 109.19140954 76.2132421 129.59833865 59.6875 146.4375 C59.08421875 147.06527344 58.4809375 147.69304687 57.859375 148.33984375 C39.59159766 165.85308246 14.30019755 167.14324568 -9.56593323 166.66543579 C-26.89719273 166.17151841 -44.25866435 160.16942824 -57.3125 148.4375 C-58.10914063 147.74398437 -58.90578125 147.05046875 -59.7265625 146.3359375 C-76.15901789 131.09495923 -82.04670883 109.76061841 -83.19140625 87.98535156 C-83.98865302 65.89641666 -79.50858669 42.34582181 -64.3125 25.4375 C-63.61898437 24.64085938 -62.92546875 23.84421875 -62.2109375 23.0234375 C-45.98400803 5.52795328 -23.16908825 -0.18636607 0 0 Z M-27.3125 41.4375 C-39.25837745 57.64186154 -41.2186518 78.3526243 -38.59130859 97.83325195 C-36.64434649 110.19325814 -31.69815874 123.16091036 -21.37109375 130.890625 C-11.16822414 137.62800379 1.01030207 138.13848917 12.8359375 135.8203125 C22.51736511 132.36920424 28.99598526 125.17538466 33.4765625 116.15234375 C41.80683506 97.47641011 42.0039638 75.09575325 35.80859375 55.68359375 C34.89745164 53.49151546 33.87954704 51.48911837 32.6875 49.4375 C32.26726562 48.68210937 31.84703125 47.92671875 31.4140625 47.1484375 C26.3312102 38.75190248 19.21039435 32.98228409 9.6875 30.4375 C6.54906881 30.0215715 3.47547462 29.95952667 0.3125 30 C-0.52385986 30.00829834 -1.36021973 30.01659668 -2.22192383 30.02514648 C-12.63150405 30.30982698 -20.3185516 33.56930805 -27.3125 41.4375 Z " fill="#000000" transform="translate(634.3125,-0.4375)"/>
<path d="M0 0 C19.5834375 -0.0928125 19.5834375 -0.0928125 39.5625 -0.1875 C43.65470947 -0.21481201 47.74691895 -0.24212402 51.96313477 -0.27026367 C57.0369873 -0.28381348 57.0369873 -0.28381348 59.42710876 -0.28633118 C61.06397463 -0.29087846 62.70083172 -0.30130284 64.33763123 -0.31672668 C82.85348272 -0.48218054 101.86312428 0.98469332 115.87109375 14.54296875 C124.82635576 24.87849132 125.89603643 37.76034207 125.1953125 50.89599609 C124.06578898 63.06378824 118.26960469 71.76377224 109.16796875 79.45703125 C105.7056104 81.92123224 101.96774041 83.52128193 98 85 C98.6290625 85.40089844 99.258125 85.80179687 99.90625 86.21484375 C100.7621875 86.78332031 101.618125 87.35179688 102.5 87.9375 C103.3353125 88.48277344 104.170625 89.02804688 105.03125 89.58984375 C113.14041661 96.17320664 117.97319859 103.91399791 122.5625 113.1875 C123.14531738 114.33919678 123.72813477 115.49089355 124.32861328 116.67749023 C125.57534652 119.142008 126.81317088 121.61072591 128.04443359 124.08300781 C129.73844447 127.48261548 131.45130648 130.87236244 133.16960144 134.25975037 C134.90980958 137.69144171 136.64246126 141.12693225 138.375 144.5625 C138.70968292 145.22446381 139.04436584 145.88642761 139.38919067 146.56845093 C140.33406229 148.44065384 141.27335803 150.3155431 142.2109375 152.19140625 C142.75024902 153.26592041 143.28956055 154.34043457 143.84521484 155.44750977 C145 158 145 158 145 160 C130.15 160 115.3 160 100 160 C98.56527344 157.08414063 97.13054687 154.16828125 95.65234375 151.1640625 C94.24098354 148.31005376 92.82680366 145.45745885 91.41235352 142.60498047 C90.43870004 140.63768791 89.46793602 138.66896232 88.50024414 136.69873047 C80.16229366 116.94647808 80.16229366 116.94647808 65 103 C57.47288834 101.05612611 49.72267482 100.70206135 42 100 C42 119.8 42 139.6 42 160 C28.14 160 14.28 160 0 160 C0 107.2 0 54.4 0 0 Z M42 29 C42 42.86 42 56.72 42 71 C60.93132979 72.20787189 60.93132979 72.20787189 78 65 C82.7033209 59.02551128 83.72559368 53.51123831 83 46 C82.06383589 41.2477771 80.84070096 37.31852661 77.125 34.0625 C66.4997269 27.04981976 54.51939152 29 42 29 Z " fill="#000000" transform="translate(748,3)"/>
<path d="M0 0 C19.5834375 -0.0928125 19.5834375 -0.0928125 39.5625 -0.1875 C43.65470947 -0.21481201 47.74691895 -0.24212402 51.96313477 -0.27026367 C57.0369873 -0.28381348 57.0369873 -0.28381348 59.42710876 -0.28633118 C61.06397463 -0.29087846 62.70083172 -0.30130284 64.33763123 -0.31672668 C82.85348272 -0.48218054 101.86312428 0.98469332 115.87109375 14.54296875 C124.82635576 24.87849132 125.89603643 37.76034207 125.1953125 50.89599609 C124.06578898 63.06378824 118.26960469 71.76377224 109.16796875 79.45703125 C105.7056104 81.92123224 101.96774041 83.52128193 98 85 C98.6290625 85.40089844 99.258125 85.80179687 99.90625 86.21484375 C100.7621875 86.78332031 101.618125 87.35179688 102.5 87.9375 C103.3353125 88.48277344 104.170625 89.02804688 105.03125 89.58984375 C113.14041661 96.17320664 117.97319859 103.91399791 122.5625 113.1875 C123.14531738 114.33919678 123.72813477 115.49089355 124.32861328 116.67749023 C125.57534652 119.142008 126.81317088 121.61072591 128.04443359 124.08300781 C129.73844447 127.48261548 131.45130648 130.87236244 133.16960144 134.25975037 C134.90980958 137.69144171 136.64246126 141.12693225 138.375 144.5625 C138.70968292 145.22446381 139.04436584 145.88642761 139.38919067 146.56845093 C140.33406229 148.44065384 141.27335803 150.3155431 142.2109375 152.19140625 C142.75024902 153.26592041 143.28956055 154.34043457 143.84521484 155.44750977 C145 158 145 158 145 160 C130.15 160 115.3 160 100 160 C98.56527344 157.08414063 97.13054687 154.16828125 95.65234375 151.1640625 C94.24098354 148.31005376 92.82680366 145.45745885 91.41235352 142.60498047 C90.43870004 140.63768791 89.46793602 138.66896232 88.50024414 136.69873047 C80.16229366 116.94647808 80.16229366 116.94647808 65 103 C57.47288834 101.05612611 49.72267482 100.70206135 42 100 C42 119.8 42 139.6 42 160 C28.14 160 14.28 160 0 160 C0 107.2 0 54.4 0 0 Z M42 29 C42 42.86 42 56.72 42 71 C60.93132979 72.20787189 60.93132979 72.20787189 78 65 C82.7033209 59.02551128 83.72559368 53.51123831 83 46 C82.06383589 41.2477771 80.84070096 37.31852661 77.125 34.0625 C66.4997269 27.04981976 54.51939152 29 42 29 Z " fill="#000000" transform="translate(0,3)"/>
<path d="M0 0 C36.96 0 73.92 0 112 0 C112 10.23 112 20.46 112 31 C88.9 31 65.8 31 42 31 C42 40.9 42 50.8 42 61 C63.78 61 85.56 61 108 61 C108 71.23 108 81.46 108 92 C86.22 92 64.44 92 42 92 C42 104.21 42 116.42 42 129 C66.09 129 90.18 129 115 129 C115 139.23 115 149.46 115 160 C77.05 160 39.1 160 0 160 C0 107.2 0 54.4 0 0 Z " fill="#000000" transform="translate(169,3)"/>
<path d="M0 0 C36.96 0 73.92 0 112 0 C112 10.23 112 20.46 112 31 C88.9 31 65.8 31 42 31 C42 40.9 42 50.8 42 61 C63.78 61 85.56 61 108 61 C108 71.23 108 81.46 108 92 C86.22 92 64.44 92 42 92 C42 114.44 42 136.88 42 160 C28.14 160 14.28 160 0 160 C0 107.2 0 54.4 0 0 Z " fill="#000000" transform="translate(411,3)"/>
<path d="M0 0 C22.77 0 45.54 0 69 0 C69 10.23 69 20.46 69 31 C46.23 31 23.46 31 0 31 C0 20.77 0 10.54 0 0 Z " fill="#000000" transform="translate(311,84)"/>
</svg>
